<svg version="1.1" id="Layer_1" xmlns="http://www.w3.org/2000/svg" xmlns:xlink="http://www.w3.org/1999/xlink" x="0px" y="0px"
	 width="100%" viewBox="0 0 1280 960" enable-background="new 0 0 1280 960" xml:space="preserve">
<path fill="#000000" opacity="1.000000" stroke="none" 
	d="
M683.000000,961.000000 
	C455.358643,961.000000 228.217285,961.000000 1.037960,961.000000 
	C1.037960,641.060974 1.037960,321.121918 1.037960,1.091433 
	C427.558167,1.091433 854.116394,1.091433 1280.837280,1.091433 
	C1280.837280,320.999939 1280.837280,640.999939 1280.837280,961.000000 
	C1081.788330,961.000000 882.644165,961.000000 683.000000,961.000000 
M575.500000,733.146912 
	C683.143005,733.111816 790.786560,733.234497 898.428101,732.823547 
	C910.608215,732.777039 923.005920,730.691895 934.904846,727.872681 
	C962.776489,721.269104 987.904358,708.624695 1010.106567,690.412659 
	C1041.647827,664.540161 1063.089844,631.900635 1073.890625,592.634827 
	C1080.746948,567.708923 1082.582031,542.268616 1078.925171,516.446716 
	C1076.105347,496.534485 1070.742676,477.496185 1062.070068,459.397736 
	C1047.465942,428.921051 1026.290283,404.035980 998.554626,384.650177 
	C970.514221,365.051300 939.433777,353.716217 905.466736,350.926544 
	C872.795776,348.243347 841.165649,353.180786 811.120789,366.763885 
	C808.477234,367.958984 806.962402,367.712006 805.572876,364.929688 
	C794.347778,342.452423 779.783081,322.326782 762.316162,304.300446 
	C718.816162,259.407440 665.784851,233.718918 603.744629,227.632385 
	C566.092712,223.938492 529.109131,228.443863 493.318115,241.601028 
	C452.861786,256.473206 418.340668,279.877380 389.693878,312.029449 
	C364.651215,340.136383 346.974213,372.391754 336.286469,408.384338 
	C330.452026,428.032654 326.910248,448.181458 326.583038,468.774231 
	C326.533905,471.864777 326.308777,474.268280 322.187286,474.469604 
	C309.478363,475.090393 297.303009,478.194214 285.414154,482.696350 
	C219.318497,507.725677 185.513123,582.985046 210.557007,649.547241 
	C229.059677,698.724060 277.784302,733.470886 331.053101,733.240051 
	C412.200684,732.888489 493.350891,733.147034 575.500000,733.146912 
z"/>
<path fill="#FEFDFD" opacity="1.000000" stroke="none" 
	d="
M575.000000,733.146729 
	C493.350891,733.147034 412.200684,732.888489 331.053101,733.240051 
	C277.784302,733.470886 229.059677,698.724060 210.557007,649.547241 
	C185.513123,582.985046 219.318497,507.725677 285.414154,482.696350 
	C297.303009,478.194214 309.478363,475.090393 322.187286,474.469604 
	C326.308777,474.268280 326.533905,471.864777 326.583038,468.774231 
	C326.910248,448.181458 330.452026,428.032654 336.286469,408.384338 
	C346.974213,372.391754 364.651215,340.136383 389.693878,312.029449 
	C418.340668,279.877380 452.861786,256.473206 493.318115,241.601028 
	C529.109131,228.443863 566.092712,223.938492 603.744629,227.632385 
	C665.784851,233.718918 718.816162,259.407440 762.316162,304.300446 
	C779.783081,322.326782 794.347778,342.452423 805.572876,364.929688 
	C806.962402,367.712006 808.477234,367.958984 811.120789,366.763885 
	C841.165649,353.180786 872.795776,348.243347 905.466736,350.926544 
	C939.433777,353.716217 970.514221,365.051300 998.554626,384.650177 
	C1026.290283,404.035980 1047.465942,428.921051 1062.070068,459.397736 
	C1070.742676,477.496185 1076.105347,496.534485 1078.925171,516.446716 
	C1082.582031,542.268616 1080.746948,567.708923 1073.890625,592.634827 
	C1063.089844,631.900635 1041.647827,664.540161 1010.106567,690.412659 
	C987.904358,708.624695 962.776489,721.269104 934.904846,727.872681 
	C923.005920,730.691895 910.608215,732.777039 898.428101,732.823547 
	C790.786560,733.234497 683.143005,733.111816 575.000000,733.146729 
M517.353333,539.770386 
	C517.873169,539.210571 518.393005,538.650757 519.207520,537.863037 
	C519.500854,537.626038 519.794250,537.389038 520.801880,537.192139 
	C523.286865,535.158875 525.771851,533.125549 528.035950,531.272949 
	C531.186035,535.288452 534.143005,539.057739 537.069458,542.912720 
	C537.069458,542.912720 537.160400,542.910889 537.158508,543.522339 
	C537.799927,543.921021 538.441345,544.319641 539.377197,545.047119 
	C539.377197,545.047119 539.813538,545.114075 540.081238,545.717285 
	C545.799561,547.521423 548.734375,543.125244 552.728577,540.111389 
	C552.728577,540.111389 552.927185,539.757751 553.542297,539.726685 
	C554.056213,539.173157 554.570190,538.619629 555.001160,538.007080 
	C555.001160,538.007080 555.067078,538.084839 555.743652,537.953857 
	C558.471680,535.790100 557.731689,533.469177 556.256653,530.913818 
	C552.626953,524.625488 550.627930,517.849060 550.583313,510.541351 
	C550.492065,495.588470 550.417114,480.635315 550.253540,465.683167 
	C550.234436,463.941010 549.698730,462.204529 549.569946,459.790863 
	C549.475464,458.878082 549.380920,457.965302 549.676575,456.413544 
	C549.071533,448.556091 547.708069,440.966919 541.911926,434.342407 
	C541.543518,433.924347 541.175110,433.506287 540.802246,432.417023 
	C538.830505,430.744965 536.858765,429.072937 534.618713,427.023590 
	C534.618713,427.023590 534.173401,426.896851 533.973877,426.244171 
	C527.568298,422.036194 520.729553,419.195801 512.249573,419.285095 
	C511.799500,419.327789 511.349457,419.370483 510.316223,418.852722 
	C496.525391,417.182007 483.158630,419.306152 470.147919,423.747986 
	C466.835052,424.878967 463.908264,427.140747 460.264587,429.068115 
	C459.807617,429.652527 459.350677,430.236938 458.157043,431.097504 
	C457.858032,434.019897 457.353394,436.938568 457.300751,439.865387 
	C457.171967,447.023682 458.924103,448.164734 465.603455,445.562286 
	C483.117737,438.738251 500.763062,434.445129 519.422119,443.300262 
	C520.051086,443.835999 520.680115,444.371704 521.342285,445.622528 
	C526.832092,453.339600 526.342163,462.261871 526.575989,471.073273 
	C526.668823,474.572296 525.788330,475.474396 521.960754,475.053253 
	C510.591095,473.802368 499.111420,472.204498 487.740997,472.608185 
	C468.572388,473.288849 453.962463,485.190308 449.958710,503.197021 
	C447.201874,515.595703 448.755035,527.728271 458.835266,537.959778 
	C469.510132,548.933228 482.844208,550.303955 496.943512,548.131653 
	C503.910614,547.058350 510.828644,545.349731 516.591431,539.953918 
	C516.591431,539.953918 516.863159,539.580261 517.353333,539.770386 
M636.201538,423.888855 
	C635.900208,424.069214 635.779175,424.332458 635.140686,424.892944 
	C634.389099,426.902405 633.410156,428.858154 632.920471,430.929565 
	C626.911560,456.349487 620.984192,481.788696 615.006714,507.216095 
	C614.208679,510.611084 613.250916,513.968506 612.367126,517.343262 
	C610.828735,515.869629 610.273193,514.516418 609.916931,513.112671 
	C603.119568,486.332794 596.410645,459.530151 589.479919,432.784973 
	C588.663513,429.634705 586.655029,426.793396 585.028748,423.985626 
	C585.028748,423.985626 585.210022,423.822754 585.003418,423.114197 
	C579.936829,422.665375 574.877563,421.988708 569.801758,421.824829 
	C563.319336,421.615479 562.080872,423.308685 563.984131,429.692322 
	C569.020874,446.586273 574.199341,463.437988 579.320496,480.306824 
	C585.168579,499.570251 591.052551,518.822937 596.838440,538.105042 
	C598.389526,543.274109 601.382202,545.958252 607.034485,545.489319 
	C610.508362,545.201050 614.028870,545.344604 617.522949,545.459656 
	C622.165527,545.612549 624.706665,543.078430 625.703796,538.941040 
	C630.850037,517.586365 635.886475,496.205231 640.969910,474.835388 
	C642.718689,467.483765 644.492615,460.138092 646.404541,452.166382 
	C647.729065,453.399139 648.522766,454.137817 649.128967,455.594360 
	C649.286133,456.051575 649.443237,456.508759 649.325684,457.729095 
	C649.742798,459.848541 650.085388,461.985809 650.588440,464.084656 
	C655.937866,486.407135 661.304260,508.725586 666.683716,531.040833 
	C670.589661,547.243835 669.828857,545.500732 684.447754,545.547119 
	C694.414124,545.578735 695.549622,544.639648 698.426880,535.165527 
	C703.015808,520.055054 707.744385,504.986877 712.440979,489.909210 
	C718.771545,469.585419 725.162659,449.280365 731.449097,428.942993 
	C733.048950,423.767181 731.473450,421.790100 726.093018,421.771820 
	C723.264221,421.762207 720.433655,421.881042 717.606812,421.815399 
	C710.761292,421.656464 708.691223,423.125031 706.986023,429.704498 
	C699.683044,457.882477 692.410217,486.068268 685.092407,514.242371 
	C684.727844,515.646118 684.044922,516.967163 683.131287,519.290283 
	C682.279419,517.532227 681.890991,516.998962 681.753052,516.407410 
	C675.069092,487.736115 668.454773,459.048370 661.653259,430.405090 
	C661.093994,428.049896 659.278564,425.992981 657.924011,423.639099 
	C657.924011,423.639099 657.731323,423.583954 657.342651,422.904205 
	C650.372803,421.561584 643.397339,420.094330 636.201538,423.888855 
M744.884583,539.839294 
	C746.106995,540.685669 747.225281,541.782471 748.567627,542.340332 
	C764.297180,548.877075 780.587402,551.235168 797.447449,548.286072 
	C806.598206,546.685486 815.011353,543.293213 822.082947,536.983398 
	C840.173950,520.841431 837.464966,492.462799 816.459839,481.339417 
	C810.933533,478.412842 804.710999,476.793396 798.791931,474.617859 
	C790.844299,471.696686 782.700684,469.223236 774.983948,465.787567 
	C769.292297,463.253448 766.151855,458.420349 766.825623,451.680389 
	C767.454285,445.391724 771.159607,441.695435 776.794006,439.931000 
	C780.402893,438.800842 784.235046,438.102936 788.010925,437.840271 
	C799.008728,437.075226 809.553162,439.119202 819.575684,443.765472 
	C822.413635,445.081146 825.213013,445.568115 826.647400,441.947083 
	C829.365662,435.084991 826.417847,426.512238 819.514404,423.925964 
	C801.055298,417.010590 782.242981,414.834686 763.653137,423.409454 
	C745.982056,431.560425 738.273499,450.554474 745.363525,467.525024 
	C750.473206,479.755554 760.578064,485.896057 772.624512,489.772797 
	C782.418213,492.924500 792.215942,496.131195 801.781372,499.898743 
	C807.550781,502.171204 810.198914,506.951813 809.842590,513.469910 
	C809.498413,519.765808 806.233215,524.219543 800.835754,526.068359 
	C794.815369,528.130554 788.288696,529.454468 781.937683,529.650330 
	C770.491882,530.003357 759.499756,527.102661 749.040039,522.394958 
	C746.429443,521.220032 743.919312,520.494263 741.997559,523.429260 
	C740.241699,526.110840 741.449402,535.736328 743.985046,538.712463 
	C744.202148,538.945068 744.466736,539.092407 744.884583,539.839294 
M509.543243,639.860229 
	C513.035950,641.423950 516.481812,643.103882 520.028503,644.533813 
	C567.929504,663.846008 617.456116,672.107910 669.095337,667.071533 
	C709.169189,663.163086 747.314819,652.770569 782.992371,634.063782 
	C792.816833,628.912537 801.902771,622.326782 811.185364,616.184265 
	C813.893005,614.392517 815.096375,611.461548 813.268188,608.315857 
	C811.538269,605.339355 808.676636,604.509949 805.470215,605.567505 
	C801.685486,606.815735 797.953674,608.236694 794.242371,609.693542 
	C747.894897,627.886047 699.789978,637.607239 650.048218,637.906982 
	C630.142700,638.026978 610.124634,636.411377 590.328796,634.112854 
	C554.616272,629.966187 520.069031,620.611511 486.969025,606.593567 
	C470.779572,599.737244 455.308441,591.194702 439.392029,583.669556 
	C437.683533,582.861877 435.169891,583.757263 433.029724,583.862671 
	C433.499695,585.880066 433.689972,588.025879 434.536316,589.870544 
	C435.116913,591.136108 436.578156,592.018616 437.699341,593.011963 
	C459.140808,612.007141 483.053467,627.223389 509.543243,639.860229 
M794.852600,577.392090 
	C788.526489,580.278809 782.102661,582.977905 775.942078,586.182800 
	C774.380310,586.995239 773.656616,589.418762 772.547852,591.101929 
	C774.567749,591.809265 776.631287,593.221191 778.599854,593.099304 
	C786.224304,592.627380 793.804688,591.271851 801.428101,591.005005 
	C808.374817,590.761780 815.404358,591.097412 822.308411,591.922729 
	C829.298340,592.758301 831.871338,596.391357 830.959961,603.327881 
	C830.334351,608.090027 829.471008,612.900208 827.991882,617.454468 
	C824.912903,626.934631 821.274231,636.232056 818.076355,645.675842 
	C817.574951,647.156555 818.180542,649.012024 818.274231,650.694214 
	C820.088806,650.455322 821.912842,650.267761 823.710999,649.939148 
	C824.127686,649.862976 824.466736,649.315613 824.823975,648.967102 
	C842.167969,632.043457 849.758606,610.876404 851.375305,587.230957 
	C851.671143,582.905334 850.068115,578.885803 845.397034,577.296326 
	C842.580811,576.338013 839.650085,575.566650 836.708618,575.151489 
	C822.901550,573.202820 809.193054,573.715210 794.852600,577.392090 
z"/>
<path fill="#FD9D0D" opacity="1.000000" stroke="none" 
	d="
M509.207520,639.691223 
	C483.053467,627.223389 459.140808,612.007141 437.699341,593.011963 
	C436.578156,592.018616 435.116913,591.136108 434.536316,589.870544 
	C433.689972,588.025879 433.499695,585.880066 433.029724,583.862671 
	C435.169891,583.757263 437.683533,582.861877 439.392029,583.669556 
	C455.308441,591.194702 470.779572,599.737244 486.969025,606.593567 
	C520.069031,620.611511 554.616272,629.966187 590.328796,634.112854 
	C610.124634,636.411377 630.142700,638.026978 650.048218,637.906982 
	C699.789978,637.607239 747.894897,627.886047 794.242371,609.693542 
	C797.953674,608.236694 801.685486,606.815735 805.470215,605.567505 
	C808.676636,604.509949 811.538269,605.339355 813.268188,608.315857 
	C815.096375,611.461548 813.893005,614.392517 811.185364,616.184265 
	C801.902771,622.326782 792.816833,628.912537 782.992371,634.063782 
	C747.314819,652.770569 709.169189,663.163086 669.095337,667.071533 
	C617.456116,672.107910 567.929504,663.846008 520.028503,644.533813 
	C516.481812,643.103882 513.035950,641.423950 509.207520,639.691223 
z"/>
<path fill="#303948" opacity="1.000000" stroke="none" 
	d="
M585.199219,423.808838 
	C586.655029,426.793396 588.663513,429.634705 589.479919,432.784973 
	C596.410645,459.530151 603.119568,486.332794 609.916931,513.112671 
	C610.273193,514.516418 610.828735,515.869629 612.367126,517.343262 
	C613.250916,513.968506 614.208679,510.611084 615.006714,507.216095 
	C620.984192,481.788696 626.911560,456.349487 632.920471,430.929565 
	C633.410156,428.858154 634.389099,426.902405 635.546997,425.208771 
	C628.887390,455.968445 621.821533,486.412292 614.755615,516.856140 
	C615.182190,516.998718 615.608765,517.141235 616.035339,517.283813 
	C617.011475,515.257629 618.394104,513.325806 618.889832,511.188202 
	C620.591553,503.850403 621.817749,496.402069 623.532654,489.067749 
	C625.854675,479.137512 628.601196,469.306274 630.904419,459.372009 
	C633.119507,449.817657 634.886108,440.158600 637.156799,430.618622 
	C637.491760,429.211395 639.429443,427.322113 640.784485,427.181000 
	C645.070557,426.734650 649.445435,426.822754 653.755859,427.128937 
	C654.992798,427.216827 656.848694,428.525208 657.188477,429.647247 
	C658.993958,435.608765 660.535583,441.659729 661.923950,447.735626 
	C663.640930,455.250031 665.007385,462.844604 666.728027,470.358124 
	C668.695618,478.950470 670.897705,487.488922 672.975525,496.056213 
	C674.816406,503.646088 676.618164,511.245483 678.462036,518.834656 
	C678.674500,519.708862 679.046753,520.544250 679.344971,521.397644 
	C679.877625,520.979675 680.410278,520.561707 680.942993,520.143738 
	C673.310913,488.028290 665.678894,455.912903 658.046814,423.797485 
	C659.278564,425.992981 661.093994,428.049896 661.653259,430.405090 
	C668.454773,459.048370 675.069092,487.736115 681.753052,516.407410 
	C681.890991,516.998962 682.279419,517.532227 683.131287,519.290283 
	C684.044922,516.967163 684.727844,515.646118 685.092407,514.242371 
	C692.410217,486.068268 699.683044,457.882477 706.986023,429.704498 
	C708.691223,423.125031 710.761292,421.656464 717.606812,421.815399 
	C720.433655,421.881042 723.264221,421.762207 726.093018,421.771820 
	C731.473450,421.790100 733.048950,423.767181 731.449097,428.942993 
	C725.162659,449.280365 718.771545,469.585419 712.440979,489.909210 
	C707.744385,504.986877 703.015808,520.055054 698.426880,535.165527 
	C695.549622,544.639648 694.414124,545.578735 684.447754,545.547119 
	C669.828857,545.500732 670.589661,547.243835 666.683716,531.040833 
	C661.304260,508.725586 655.937866,486.407135 650.588440,464.084656 
	C650.085388,461.985809 649.742798,459.848541 649.779602,457.454163 
	C650.699036,458.220276 651.339844,459.218903 651.603760,460.308807 
	C655.443420,476.161957 659.179260,492.040436 663.068237,507.881348 
	C664.155518,512.309998 665.658936,516.636414 666.974609,521.434204 
	C667.814819,526.214417 668.537415,530.596008 669.512634,534.920593 
	C671.554993,543.977478 671.609619,543.965942 681.026794,543.965454 
	C683.189514,543.965332 685.360901,544.081848 687.513245,543.930298 
	C693.861816,543.483276 698.731140,536.038940 696.712891,528.375732 
	C695.584290,531.653442 694.484253,533.973328 694.017761,536.414368 
	C693.363647,539.836487 691.628906,542.212769 688.153015,541.873718 
	C682.632141,541.335083 675.894165,544.812195 672.157043,537.593323 
	C671.945923,537.185608 672.129517,536.592529 672.006653,536.117432 
	C670.701233,531.069458 669.370850,526.027832 668.036621,520.550903 
	C667.029846,515.854553 666.024048,511.593964 665.039795,507.328400 
	C663.286377,499.729034 661.587219,492.116882 659.787415,484.528564 
	C658.256775,478.074860 656.557983,471.660858 655.042908,465.203644 
	C653.815002,459.970032 652.749756,454.698242 651.612305,449.443420 
	C651.292297,449.472107 650.972290,449.500824 650.652283,449.529541 
	C650.207031,451.311859 649.761719,453.094177 649.316406,454.876495 
	C648.522766,454.137817 647.729065,453.399139 646.404541,452.166382 
	C644.492615,460.138092 642.718689,467.483765 640.969910,474.835388 
	C635.886475,496.205231 630.850037,517.586365 625.703796,538.941040 
	C624.706665,543.078430 622.165527,545.612549 617.522949,545.459656 
	C614.028870,545.344604 610.508362,545.201050 607.034485,545.489319 
	C601.382202,545.958252 598.389526,543.274109 596.838440,538.105042 
	C591.052551,518.822937 585.168579,499.570251 579.320496,480.306824 
	C574.199341,463.437988 569.020874,446.586273 563.984131,429.692322 
	C562.080872,423.308685 563.319336,421.615479 569.801758,421.824829 
	C574.877563,421.988708 579.936829,422.665375 584.626831,423.538391 
	C579.260498,423.978851 574.268677,423.912750 569.281799,424.040588 
	C565.979980,424.125214 564.532776,425.307495 565.794617,429.109894 
	C568.488464,437.227448 570.593018,445.538269 573.137878,453.707947 
	C578.679260,471.496735 584.345093,489.246674 589.971924,507.415527 
	C592.974792,517.977966 595.753906,528.208435 599.120117,538.241943 
	C599.869690,540.476257 602.663818,543.565796 604.552551,543.591248 
	C610.509399,543.671692 616.920471,545.966309 622.404175,541.763977 
	C623.186340,541.164612 623.396423,539.687378 623.662109,538.566833 
	C625.227905,531.961609 626.663513,525.325012 628.269714,518.729858 
	C632.617249,500.878967 637.062073,483.051758 641.390625,465.196289 
	C642.457092,460.796875 643.227051,456.325531 644.133301,451.887268 
	C643.597046,451.752533 643.060852,451.617828 642.524658,451.483124 
	C641.009705,457.367706 639.372070,463.224121 638.011658,469.144226 
	C636.402405,476.147766 635.274109,483.268188 633.492615,490.224091 
	C631.607056,497.586456 628.957214,504.753632 627.085632,512.118958 
	C625.148499,519.742004 623.546692,527.465515 622.179565,535.212463 
	C621.310913,540.134827 618.218262,541.680176 613.892090,541.960938 
	C611.569580,542.111633 609.103088,542.584045 606.945068,542.004639 
	C604.851440,541.442444 601.957947,540.123840 601.344849,538.436523 
	C598.827209,531.507202 597.141052,524.280823 594.951721,517.224976 
	C593.870972,513.742249 592.360779,510.392822 591.034180,506.582397 
	C589.693542,501.460236 588.410339,496.725037 587.023621,492.020355 
	C584.682922,484.078949 582.212097,476.175476 579.916687,468.221222 
	C577.733032,460.653992 575.838135,453.001678 573.563538,445.463013 
	C571.785522,439.570160 569.620605,433.794006 567.317200,427.058228 
	C574.039612,427.058228 579.489014,427.058228 584.943298,427.493164 
	C585.624695,431.578949 586.295105,435.230927 586.979309,438.880310 
	C587.765686,443.074188 588.406677,447.303253 589.392334,451.450104 
	C591.153442,458.859039 592.994812,466.254761 595.064392,473.582092 
	C596.113525,477.296661 597.733704,480.849884 599.095703,484.476074 
	C599.790771,482.611145 599.913574,480.822052 599.500549,479.166748 
	C596.023682,465.234406 592.522644,451.307068 588.852417,437.424866 
	C587.907532,433.851166 586.337219,430.442841 585.048340,426.563324 
	C585.094788,425.381683 585.146973,424.595245 585.199219,423.808838 
M726.005493,431.875183 
	C725.223083,435.366486 724.700745,438.941711 723.606934,442.332550 
	C720.905151,450.708038 717.897461,458.984497 715.145142,467.344360 
	C714.840088,468.270874 715.390869,469.479156 715.544739,470.556763 
	C715.885864,470.535614 716.226990,470.514465 716.568054,470.493286 
	C721.295410,455.334991 726.022766,440.176666 731.070068,423.992401 
	C724.858521,423.992401 720.233032,424.207489 715.638428,423.923706 
	C712.026672,423.700684 710.151184,424.976135 709.238220,428.498993 
	C705.964600,441.130280 702.436707,453.695587 699.153198,466.324371 
	C695.601318,479.985413 692.156738,493.675201 688.792908,507.383759 
	C687.786316,511.485931 687.207764,515.693115 686.433105,519.852234 
	C686.835571,519.945251 687.238037,520.038208 687.640564,520.131226 
	C688.760254,516.612976 690.118042,513.150208 690.953674,509.565765 
	C693.182922,500.002441 694.969177,490.332489 697.334106,480.804840 
	C700.728210,467.131042 704.488892,453.548340 708.069641,439.920593 
	C708.804810,437.122498 709.298523,434.254272 710.156128,431.496918 
	C710.977295,428.856842 712.322388,426.768677 715.741333,426.940613 
	C718.018066,427.055084 720.325134,426.367249 722.622620,426.336914 
	C724.172546,426.316467 725.729370,426.815979 727.283081,427.082916 
	C726.893738,428.418823 726.504395,429.754761 726.005493,431.875183 
M705.941895,498.232147 
	C704.548279,502.772125 703.169800,507.316833 701.756592,511.850708 
	C700.417053,516.148254 699.041077,520.434448 697.681152,524.725586 
	C698.119934,524.864624 698.558716,525.003723 698.997498,525.142761 
	C706.311768,507.381500 713.248108,482.831909 711.450562,478.508820 
	C709.463623,485.369720 707.720032,491.390320 705.941895,498.232147 
M603.976318,505.677979 
	C604.886353,509.612701 605.796387,513.547424 606.883606,518.248047 
	C608.308960,513.574707 603.786560,492.145020 600.683228,486.649658 
	C600.267517,486.736389 599.851807,486.823090 599.436035,486.909821 
	C600.937134,492.879974 602.438171,498.850159 603.976318,505.677979 
M713.075806,476.702789 
	C713.170959,476.833893 713.244324,476.993988 713.368042,477.087097 
	C713.469482,477.163361 713.746826,477.195007 713.749329,477.186676 
	C714.105408,476.013763 714.443542,474.835358 714.782410,473.657196 
	C714.361572,473.591064 713.940735,473.524902 713.519836,473.458771 
	C713.343445,474.320190 713.167114,475.181580 713.075806,476.702789 
z"/>
<path fill="#252D3C" opacity="1.000000" stroke="none" 
	d="
M521.309082,444.907440 
	C520.680115,444.371704 520.051086,443.835999 519.198120,442.704529 
	C517.182129,440.997253 515.523499,439.477600 513.576233,438.841522 
	C502.380829,435.184448 491.110596,435.904663 479.965942,439.059753 
	C474.414917,440.631287 469.031830,442.791565 463.557159,444.639221 
	C460.480927,445.677399 458.782867,444.868591 458.921875,441.256165 
	C459.055511,437.783386 458.914185,434.300018 458.893677,430.821350 
	C459.350677,430.236938 459.807617,429.652527 460.916565,429.019287 
	C476.259186,422.637787 491.485016,419.089172 507.595612,420.019073 
	C508.681610,420.081787 509.797424,419.627167 510.899384,419.413147 
	C511.349457,419.370483 511.799500,419.327789 512.688354,419.757812 
	C520.142578,422.452606 527.157959,424.674744 534.173401,426.896851 
	C534.173401,426.896851 534.618713,427.023590 534.787231,427.533508 
	C536.906067,429.725037 538.856384,431.406647 540.806702,433.088226 
	C541.175110,433.506287 541.543518,433.924347 541.964905,434.990845 
	C543.682251,440.147369 545.410767,444.633179 546.986023,449.172150 
	C547.882080,451.754089 548.527832,454.422882 549.286377,457.052521 
	C549.380920,457.965302 549.475464,458.878082 549.301331,460.610291 
	C548.985657,477.194092 549.104126,492.961426 548.820862,508.721588 
	C548.682373,516.421997 550.917542,523.313843 553.962830,530.200256 
	C554.995178,532.534729 554.736084,535.440247 555.067078,538.084839 
	C555.067078,538.084839 555.001160,538.007080 554.723450,538.009644 
	C553.939575,538.593994 553.433350,539.175903 552.927185,539.757751 
	C552.927185,539.757751 552.728577,540.111389 552.161621,540.076172 
	C547.667603,541.731934 543.740601,543.423035 539.813538,545.114075 
	C539.813538,545.114075 539.377197,545.047119 539.211304,544.580139 
	C538.417053,543.712402 537.788696,543.311646 537.160400,542.910889 
	C537.160400,542.910889 537.069458,542.912720 537.072876,542.519836 
	C535.225586,539.082092 532.832397,536.229492 531.666809,532.941711 
	C530.327637,529.164307 528.495605,528.460815 525.098999,529.951111 
	C524.897949,529.742249 524.794617,529.684753 524.691284,529.627258 
	C524.828308,529.818298 524.965393,530.009277 525.069031,530.525879 
	C523.514465,532.274536 521.993408,533.697571 520.136414,535.017334 
	C517.865417,535.606384 515.930237,536.298645 513.961548,536.647827 
	C512.951660,534.539734 511.975433,532.774841 511.166290,530.757385 
	C512.732117,529.630859 514.130859,528.756897 515.559570,527.864197 
	C514.989685,527.107361 514.421509,526.352661 513.940674,525.307251 
	C514.897400,524.585571 515.766724,524.154663 516.764893,524.023315 
	C517.335449,524.702026 517.777100,525.081177 518.218811,525.460266 
	C518.381287,525.220032 518.543701,524.979797 518.706177,524.739563 
	C518.044983,524.373962 517.383850,524.008362 516.809937,523.321716 
	C519.865051,519.509460 522.832947,516.018311 525.866333,512.918457 
	C525.452148,515.048889 524.972473,516.787903 524.364929,518.990723 
	C530.298828,517.033203 528.611267,512.245483 530.078308,508.089386 
	C528.461426,508.575623 527.565918,508.844910 526.514709,508.775208 
	C526.685852,504.511292 526.947327,500.579529 527.358887,496.663574 
	C527.727783,493.154724 526.167542,491.575256 522.750732,491.096375 
	C518.394897,490.485901 514.087463,489.530090 509.884033,488.392426 
	C510.676178,487.514984 511.343384,486.968201 512.553101,485.976807 
	C509.878906,485.607147 507.777954,485.316742 504.816711,484.907379 
	C505.988953,486.713806 506.575165,487.617218 506.792603,488.720428 
	C502.433197,489.037720 498.410919,488.875061 494.457489,489.321869 
	C478.610138,491.112885 471.037415,501.800446 474.646973,517.359131 
	C475.263733,520.017578 476.921326,522.434509 477.720703,524.992920 
	C476.634766,525.674316 475.926178,526.325745 475.217621,526.977234 
	C475.902649,527.590820 476.587677,528.204407 477.272675,528.817993 
	C477.859589,527.848938 478.446533,526.879822 479.396790,525.946655 
	C484.798248,530.284363 491.037048,530.149170 497.029114,531.066040 
	C494.971985,532.639648 492.982941,533.821045 490.587646,535.011841 
	C487.007812,535.364014 483.834229,535.706726 480.494446,536.067383 
	C480.633240,537.010254 480.494873,538.458557 481.085632,539.488770 
	C481.852051,540.825256 483.313080,542.854675 484.270752,542.748230 
	C485.927399,542.563965 487.746094,541.238098 488.900055,539.882935 
	C489.996368,538.595459 490.328308,536.657043 491.444031,535.001892 
	C494.820190,534.428650 499.832764,537.090698 499.152039,530.275391 
	C503.433197,529.034546 507.438721,528.013672 511.256378,527.395264 
	C509.449249,528.812134 507.783997,529.766235 506.271210,530.920227 
	C506.090240,531.058289 506.738525,532.283569 506.990967,533.385742 
	C505.717621,534.990601 504.455719,536.214661 502.679230,537.937805 
	C504.263733,538.696899 505.638794,539.355591 507.009521,540.412842 
	C507.021210,541.612915 507.037231,542.414490 506.867249,543.427734 
	C506.150146,543.808105 505.619049,543.976868 505.017029,543.794067 
	C503.896820,543.086548 502.847534,542.730530 501.798248,542.374512 
	C501.864380,543.246399 501.930481,544.118286 501.787018,545.248901 
	C500.713593,545.659302 499.849731,545.810974 498.952087,545.655273 
	C497.903503,545.608582 496.888702,545.869080 495.503601,546.299561 
	C488.441589,546.014221 481.749939,545.558899 474.990723,544.744080 
	C473.927277,543.623657 472.958649,542.823547 471.930328,542.109375 
	C468.968903,540.052734 465.983398,538.030701 463.324402,535.951050 
	C463.677002,535.034668 463.910461,533.460083 463.715607,533.405151 
	C462.535919,533.072693 461.258392,533.087341 459.707642,532.832825 
	C458.243805,531.472778 457.085876,530.265808 455.961243,529.028198 
	C455.994507,528.997559 455.934937,529.063232 455.957092,528.656006 
	C455.326965,524.829224 454.674713,521.409729 454.404938,517.982910 
	C457.217377,516.152832 456.786255,510.568634 454.013367,507.576324 
	C454.400543,501.460236 454.856018,495.802216 460.169250,492.252411 
	C461.341248,493.236694 462.328094,493.954803 463.384766,494.723755 
	C465.073181,491.965424 467.172302,489.636841 464.146423,486.686584 
	C465.860107,484.228546 467.421722,482.077606 469.174805,479.710510 
	C469.913910,479.337646 470.461517,479.180939 471.055176,479.355225 
	C474.408844,481.132019 476.695404,480.057373 478.364349,476.692993 
	C479.342804,476.298462 480.072662,476.055603 481.092041,476.130615 
	C482.675049,476.634308 483.967407,476.970581 485.262329,476.980774 
	C491.995392,477.033813 498.732056,477.122986 505.461334,476.954071 
	C509.008881,476.865021 512.543884,476.274963 516.461304,475.912659 
	C518.238953,476.243896 519.639771,476.573578 520.887939,477.145081 
	C519.812927,477.928619 518.890625,478.470337 517.614624,479.051178 
	C515.556824,480.068024 513.852600,481.045746 511.871765,482.182190 
	C514.637878,483.661285 516.820129,484.828186 518.678711,486.047363 
	C518.247253,486.835938 518.139465,487.572327 518.031738,488.308685 
	C520.167725,488.596771 522.303711,488.884888 524.439758,489.173004 
	C524.510376,488.729218 524.580994,488.285461 524.651611,487.841705 
	C523.767700,487.229218 522.883850,486.616730 522.138916,485.682281 
	C522.186157,483.572052 522.094360,481.783813 522.375366,479.995880 
	C523.801880,479.154388 524.855774,478.312561 526.303101,477.286316 
	C526.819702,469.752502 527.566711,462.337036 526.798828,455.081940 
	C526.423523,451.536469 523.228088,448.289520 521.309082,444.907440 
M486.799774,488.991974 
	C489.745178,488.127136 492.690582,487.262299 495.636017,486.397461 
	C495.374023,485.738892 495.112000,485.080322 494.850006,484.421753 
	C491.898987,485.947052 488.947937,487.472321 485.516174,489.018036 
	C485.240051,489.133789 484.963928,489.249542 484.687805,489.365326 
	C484.773956,489.489502 484.860138,489.613647 484.946289,489.737823 
	C485.298157,489.492706 485.650024,489.247589 486.799774,488.991974 
M538.004883,450.448639 
	C542.093933,449.477936 539.636841,446.940582 538.943665,445.281158 
	C538.597839,444.453247 536.750427,444.252594 535.582214,443.768219 
	C535.184326,445.029205 534.251709,446.433960 534.541016,447.510254 
	C534.823303,448.560577 536.353943,449.275360 538.004883,450.448639 
M470.009979,515.684021 
	C470.724060,515.930359 471.438141,516.176697 472.152222,516.423035 
	C472.010834,512.805542 471.869415,509.188019 471.727997,505.570526 
	C471.151367,505.614075 470.574738,505.657623 469.998108,505.701172 
	C469.998108,508.757874 469.998108,511.814606 470.009979,515.684021 
M529.042236,499.931061 
	C529.658203,500.080414 530.274231,500.229767 530.890198,500.379150 
	C530.890198,498.120117 530.890198,495.861084 530.890198,493.602051 
	C530.265625,493.613342 529.640991,493.624664 529.016418,493.635956 
	C529.016418,495.465546 529.016418,497.295105 529.042236,499.931061 
M532.383789,477.320892 
	C533.396423,477.688354 534.409058,478.055817 535.421692,478.423248 
	C535.522949,477.984497 535.624207,477.545746 535.725464,477.106995 
	C534.653870,476.948792 533.582275,476.790619 532.383789,477.320892 
M545.320801,525.211365 
	C546.001465,525.294739 546.682068,525.378113 547.362732,525.461426 
	C547.269165,524.913513 547.175537,524.365662 547.081909,523.817749 
	C546.438599,524.076172 545.795288,524.334534 545.320801,525.211365 
M467.779388,438.667572 
	C468.379791,438.410736 468.980194,438.153900 469.580597,437.897064 
	C469.091217,437.402313 468.601837,436.907593 468.112396,436.412872 
	C467.848358,437.009613 467.584351,437.606354 467.779388,438.667572 
M533.721863,433.117126 
	C533.530090,432.575928 533.338318,432.034698 533.146545,431.493530 
	C532.868896,431.620087 532.591187,431.746674 532.313538,431.873230 
	C532.638306,432.430389 532.963074,432.987549 533.721863,433.117126 
M476.508698,435.143433 
	C476.206543,435.569336 475.904419,435.995209 475.602264,436.421112 
	C476.049255,436.534424 476.496277,436.647736 476.943298,436.761047 
	C476.996857,436.262726 477.050415,435.764374 476.508698,435.143433 
M470.686798,528.522400 
	C471.024628,527.977234 471.362457,527.432068 471.700287,526.886963 
	C471.426788,526.752563 471.153290,526.618225 470.879791,526.483826 
	C470.675201,527.017700 470.470612,527.551575 470.686798,528.522400 
M479.294769,427.436432 
	C479.010925,427.707184 478.727081,427.977905 478.443146,428.248627 
	C478.555481,428.366028 478.759216,428.591797 478.766968,428.585266 
	C479.066376,428.332581 479.347839,428.058716 479.294769,427.436432 
M522.564758,431.294830 
	C522.293762,431.010803 522.022705,430.726776 521.751709,430.442749 
	C521.634155,430.555115 521.408203,430.758972 521.414673,430.766602 
	C521.667603,431.066162 521.941711,431.347839 522.564758,431.294830 
M479.384766,492.200104 
	C479.780151,492.203552 480.175720,492.211090 480.569763,492.189850 
	C480.581055,492.189209 480.575867,491.883026 480.578400,491.719299 
	C480.182709,491.714355 479.787048,491.709412 479.384766,492.200104 
M519.564392,531.294495 
	C519.293579,531.010620 519.022705,530.726746 518.751892,530.442871 
	C518.634460,530.555237 518.408630,530.759033 518.415100,530.766663 
	C518.667908,531.066040 518.941772,531.347595 519.564392,531.294495 
M465.200836,432.605225 
	C465.205109,432.213470 465.209381,431.821747 465.213654,431.429993 
	C465.051056,431.428528 464.747223,431.416107 464.746338,431.427155 
	C464.716095,431.816956 464.714294,432.208954 465.200836,432.605225 
M520.590820,523.514771 
	C520.590820,523.514771 520.473083,523.585815 520.590820,523.514771 
M481.405579,529.487122 
	C481.405579,529.487122 481.521759,529.418640 481.405579,529.487122 
M463.483246,440.585876 
	C463.483246,440.585876 463.418610,440.476471 463.483246,440.585876 
z"/>
<path fill="#FC9E15" opacity="1.000000" stroke="none" 
	d="
M795.252197,577.317749 
	C809.193054,573.715210 822.901550,573.202820 836.708618,575.151489 
	C839.650085,575.566650 842.580811,576.338013 845.397034,577.296326 
	C850.068115,578.885803 851.671143,582.905334 851.375305,587.230957 
	C849.758606,610.876404 842.167969,632.043457 824.823975,648.967102 
	C824.466736,649.315613 824.127686,649.862976 823.710999,649.939148 
	C821.912842,650.267761 820.088806,650.455322 818.274231,650.694214 
	C818.180542,649.012024 817.574951,647.156555 818.076355,645.675842 
	C821.274231,636.232056 824.912903,626.934631 827.991882,617.454468 
	C829.471008,612.900208 830.334351,608.090027 830.959961,603.327881 
	C831.871338,596.391357 829.298340,592.758301 822.308411,591.922729 
	C815.404358,591.097412 808.374817,590.761780 801.428101,591.005005 
	C793.804688,591.271851 786.224304,592.627380 778.599854,593.099304 
	C776.631287,593.221191 774.567749,591.809265 772.547852,591.101929 
	C773.656616,589.418762 774.380310,586.995239 775.942078,586.182800 
	C782.102661,582.977905 788.526489,580.278809 795.252197,577.317749 
z"/>
<path fill="#555B66" opacity="1.000000" stroke="none" 
	d="
M743.777710,538.301941 
	C741.449402,535.736328 740.241699,526.110840 741.997559,523.429260 
	C743.919312,520.494263 746.429443,521.220032 749.040039,522.394958 
	C759.499756,527.102661 770.491882,530.003357 781.937683,529.650330 
	C788.288696,529.454468 794.815369,528.130554 800.835754,526.068359 
	C806.233215,524.219543 809.498413,519.765808 809.842590,513.469910 
	C810.198914,506.951813 807.550781,502.171204 801.781372,499.898743 
	C792.215942,496.131195 782.418213,492.924500 772.624512,489.772797 
	C760.578064,485.896057 750.473206,479.755554 745.363525,467.525024 
	C738.273499,450.554474 745.982056,431.560425 763.653137,423.409454 
	C782.242981,414.834686 801.055298,417.010590 819.514404,423.925964 
	C826.417847,426.512238 829.365662,435.084991 826.647400,441.947083 
	C825.213013,445.568115 822.413635,445.081146 819.575684,443.765472 
	C809.553162,439.119202 799.008728,437.075226 788.010925,437.840271 
	C784.235046,438.102936 780.402893,438.800842 776.794006,439.931000 
	C771.159607,441.695435 767.454285,445.391724 766.825623,451.680389 
	C766.151855,458.420349 769.292297,463.253448 774.983948,465.787567 
	C782.700684,469.223236 790.844299,471.696686 798.791931,474.617859 
	C804.710999,476.793396 810.933533,478.412842 816.459839,481.339417 
	C837.464966,492.462799 840.173950,520.841431 822.082947,536.983398 
	C815.011353,543.293213 806.598206,546.685486 797.447449,548.286072 
	C780.587402,551.235168 764.297180,548.877075 748.567627,542.340332 
	C747.225281,541.782471 746.106995,540.685669 745.211548,539.458252 
	C760.620728,546.325928 776.638245,548.120483 793.085144,546.933838 
	C795.820862,546.736450 798.465637,545.280457 801.567139,544.351807 
	C806.623047,542.712646 811.726013,541.887207 815.818542,539.399536 
	C827.837036,532.094116 833.112061,520.840027 831.933655,506.937286 
	C830.764038,493.138184 822.485229,484.757202 809.822083,480.325562 
	C802.788574,477.864075 795.694519,475.571075 788.596741,473.298981 
	C783.777039,471.756104 778.903381,470.381561 774.025391,468.963104 
	C773.996887,468.994446 774.063049,468.942841 774.070190,468.594238 
	C773.652466,467.764801 773.305664,467.168335 772.790771,466.820709 
	C766.696594,462.706024 763.615356,457.102234 765.177002,449.755737 
	C766.640991,442.868591 771.594360,438.794678 778.123535,437.299561 
	C789.658081,434.658234 801.218018,435.154694 812.526245,438.868561 
	C815.519714,439.851685 818.348083,441.366302 821.370422,442.216949 
	C822.364075,442.496643 824.453491,441.771057 824.810242,440.962097 
	C827.329285,435.248993 824.611145,428.042847 818.684998,425.720886 
	C801.274109,418.899017 783.339966,417.147705 765.849731,424.436554 
	C755.400391,428.791168 746.674194,436.053986 745.485352,449.264709 
	C744.007568,458.865967 745.675781,467.295013 751.738159,474.789795 
	C758.272095,482.867462 767.421631,486.007446 776.747864,489.046936 
	C785.084045,491.763763 793.617798,494.077820 801.598083,497.620239 
	C808.255981,500.575623 813.011230,505.964050 811.845642,514.117920 
	C811.413269,517.143127 809.771362,519.995361 808.518433,523.006226 
	C808.158875,523.233643 808.018433,523.423157 807.638916,523.844971 
	C802.631409,526.322021 798.136475,529.515015 793.162231,530.705444 
	C782.996460,533.138428 772.699707,531.947083 762.702820,529.018188 
	C757.807373,527.583923 753.046814,525.680664 748.247986,523.927368 
	C744.895874,522.702576 743.130432,523.254700 743.491760,527.364258 
	C743.810608,530.990479 743.699219,534.654541 743.777710,538.301941 
z"/>
<path fill="#172130" opacity="1.000000" stroke="none" 
	d="
M657.985413,423.718292 
	C665.678894,455.912903 673.310913,488.028290 680.942993,520.143738 
	C680.410278,520.561707 679.877625,520.979675 679.344971,521.397644 
	C679.046753,520.544250 678.674500,519.708862 678.462036,518.834656 
	C676.618164,511.245483 674.816406,503.646088 672.975525,496.056213 
	C670.897705,487.488922 668.695618,478.950470 666.728027,470.358124 
	C665.007385,462.844604 663.640930,455.250031 661.923950,447.735626 
	C660.535583,441.659729 658.993958,435.608765 657.188477,429.647247 
	C656.848694,428.525208 654.992798,427.216827 653.755859,427.128937 
	C649.445435,426.822754 645.070557,426.734650 640.784485,427.181000 
	C639.429443,427.322113 637.491760,429.211395 637.156799,430.618622 
	C634.886108,440.158600 633.119507,449.817657 630.904419,459.372009 
	C628.601196,469.306274 625.854675,479.137512 623.532654,489.067749 
	C621.817749,496.402069 620.591553,503.850403 618.889832,511.188202 
	C618.394104,513.325806 617.011475,515.257629 616.035339,517.283813 
	C615.608765,517.141235 615.182190,516.998718 614.755615,516.856140 
	C621.821533,486.412292 628.887390,455.968445 635.895874,425.101624 
	C635.779175,424.332458 635.900208,424.069214 636.919067,423.932526 
	C644.334839,423.845459 651.033081,423.714691 657.731323,423.583954 
	C657.731323,423.583954 657.924011,423.639099 657.985413,423.718292 
z"/>
<path fill="#555B66" opacity="1.000000" stroke="none" 
	d="
M480.802521,475.812683 
	C480.072662,476.055603 479.342804,476.298462 477.973541,476.693756 
	C475.225800,477.572174 473.117462,478.298157 471.009094,479.024170 
	C470.461517,479.180939 469.913910,479.337646 468.871918,479.861206 
	C455.669495,488.275787 449.712219,499.846436 451.141296,514.786438 
	C451.615601,519.745483 450.832550,525.502319 455.934937,529.063232 
	C455.934937,529.063232 455.994507,528.997559 455.912567,529.403931 
	C456.968719,532.124695 458.106842,534.439026 459.098969,536.892456 
	C458.953003,537.031494 458.657532,537.305786 458.657532,537.305786 
	C448.755035,527.728271 447.201874,515.595703 449.958710,503.197021 
	C453.962463,485.190308 468.572388,473.288849 487.740997,472.608185 
	C499.111420,472.204498 510.591095,473.802368 521.960754,475.053253 
	C525.788330,475.474396 526.668823,474.572296 526.575989,471.073273 
	C526.342163,462.261871 526.832092,453.339600 521.325684,445.264984 
	C523.228088,448.289520 526.423523,451.536469 526.798828,455.081940 
	C527.566711,462.337036 526.819702,469.752502 525.904053,477.194336 
	C523.754517,477.158905 522.397522,477.031097 521.040588,476.903290 
	C519.639771,476.573578 518.238953,476.243896 516.067871,475.759888 
	C503.791809,474.427063 492.283875,472.909515 480.802521,475.812683 
z"/>
<path fill="#192232" opacity="1.000000" stroke="none" 
	d="
M801.152466,544.406067 
	C798.465637,545.280457 795.820862,546.736450 793.085144,546.933838 
	C776.638245,548.120483 760.620728,546.325928 745.158630,539.115845 
	C744.466736,539.092407 744.202148,538.945068 743.881348,538.507202 
	C743.699219,534.654541 743.810608,530.990479 743.491760,527.364258 
	C743.130432,523.254700 744.895874,522.702576 748.247986,523.927368 
	C753.046814,525.680664 757.807373,527.583923 762.702820,529.018188 
	C772.699707,531.947083 782.996460,533.138428 793.162231,530.705444 
	C798.136475,529.515015 802.631409,526.322021 807.659729,524.251953 
	C805.923828,526.606873 804.192871,530.057617 801.762573,530.652588 
	C792.105225,533.017212 782.739441,537.297974 772.113220,533.274536 
	C764.247864,530.296509 755.609192,529.360718 746.970825,527.438538 
	C744.818420,531.296509 746.571655,537.455872 751.726746,539.220215 
	C757.423889,541.169983 763.311096,543.474304 769.202454,543.747070 
	C779.766479,544.236328 790.395508,543.321106 801.025513,543.347290 
	C801.086609,543.936584 801.119568,544.171326 801.152466,544.406067 
z"/>
<path fill="#192232" opacity="1.000000" stroke="none" 
	d="
M649.222656,455.235413 
	C649.761719,453.094177 650.207031,451.311859 650.652283,449.529541 
	C650.972290,449.500824 651.292297,449.472107 651.612305,449.443420 
	C652.749756,454.698242 653.815002,459.970032 655.042908,465.203644 
	C656.557983,471.660858 658.256775,478.074860 659.787415,484.528564 
	C661.587219,492.116882 663.286377,499.729034 665.039795,507.328400 
	C666.024048,511.593964 667.029846,515.854553 667.767395,520.557617 
	C667.329773,521.001770 667.150635,521.005798 666.971436,521.009766 
	C665.658936,516.636414 664.155518,512.309998 663.068237,507.881348 
	C659.179260,492.040436 655.443420,476.161957 651.603760,460.308807 
	C651.339844,459.218903 650.699036,458.220276 649.916992,457.072571 
	C649.443237,456.508759 649.286133,456.051575 649.222656,455.235413 
z"/>
<path fill="#555B66" opacity="1.000000" stroke="none" 
	d="
M458.525360,430.959412 
	C458.914185,434.300018 459.055511,437.783386 458.921875,441.256165 
	C458.782867,444.868591 460.480927,445.677399 463.557159,444.639221 
	C469.031830,442.791565 474.414917,440.631287 479.965942,439.059753 
	C491.110596,435.904663 502.380829,435.184448 513.576233,438.841522 
	C515.523499,439.477600 517.182129,440.997253 519.018921,442.449646 
	C500.763062,434.445129 483.117737,438.738251 465.603455,445.562286 
	C458.924103,448.164734 457.171967,447.023682 457.300751,439.865387 
	C457.353394,436.938568 457.858032,434.019897 458.525360,430.959412 
z"/>
<path fill="#555B66" opacity="1.000000" stroke="none" 
	d="
M555.405396,538.019348 
	C554.736084,535.440247 554.995178,532.534729 553.962830,530.200256 
	C550.917542,523.313843 548.682373,516.421997 548.820862,508.721588 
	C549.104126,492.961426 548.985657,477.194092 549.217590,460.947540 
	C549.698730,462.204529 550.234436,463.941010 550.253540,465.683167 
	C550.417114,480.635315 550.492065,495.588470 550.583313,510.541351 
	C550.627930,517.849060 552.626953,524.625488 556.256653,530.913818 
	C557.731689,533.469177 558.471680,535.790100 555.405396,538.019348 
z"/>
<path fill="#555B66" opacity="1.000000" stroke="none" 
	d="
M505.087952,544.145569 
	C505.619049,543.976868 506.150146,543.808105 507.235809,543.362915 
	C510.578552,542.092651 513.366760,541.098877 516.154907,540.105042 
	C510.828644,545.349731 503.910614,547.058350 496.943512,548.131653 
	C482.844208,550.303955 469.510132,548.933228 458.746399,537.632812 
	C458.657532,537.305786 458.953003,537.031494 459.405090,537.027100 
	C464.924194,539.716370 469.991241,542.409973 475.058258,545.103638 
	C481.749939,545.558899 488.441589,546.014221 495.896240,546.294312 
	C497.434753,546.066895 498.210327,546.014771 498.985901,545.962646 
	C499.849731,545.810974 500.713593,545.659302 502.119385,545.236938 
	C503.470184,544.692688 504.279083,544.419128 505.087952,544.145569 
z"/>
<path fill="#555B66" opacity="1.000000" stroke="none" 
	d="
M510.607788,419.132935 
	C509.797424,419.627167 508.681610,420.081787 507.595612,420.019073 
	C491.485016,419.089172 476.259186,422.637787 461.186279,428.926697 
	C463.908264,427.140747 466.835052,424.878967 470.147919,423.747986 
	C483.158630,419.306152 496.525391,417.182007 510.607788,419.132935 
z"/>
<path fill="#555B66" opacity="1.000000" stroke="none" 
	d="
M520.472290,535.120605 
	C521.993408,533.697571 523.514465,532.274536 525.064575,530.474365 
	C525.093506,530.097229 525.196777,530.102478 525.196777,530.102478 
	C528.495605,528.460815 530.327637,529.164307 531.666809,532.941711 
	C532.832397,536.229492 535.225586,539.082092 537.088135,542.476990 
	C534.143005,539.057739 531.186035,535.288452 528.035950,531.272949 
	C525.771851,533.125549 523.286865,535.158875 520.410400,536.822266 
	C520.169983,536.008484 520.321167,535.564575 520.472290,535.120605 
z"/>
<path fill="#303948" opacity="1.000000" stroke="none" 
	d="
M657.536987,423.244080 
	C651.033081,423.714691 644.334839,423.845459 637.147766,423.910217 
	C643.397339,420.094330 650.372803,421.561584 657.536987,423.244080 
z"/>
<path fill="#555B66" opacity="1.000000" stroke="none" 
	d="
M549.481445,456.733032 
	C548.527832,454.422882 547.882080,451.754089 546.986023,449.172150 
	C545.410767,444.633179 543.682251,440.147369 542.040649,435.265747 
	C547.708069,440.966919 549.071533,448.556091 549.481445,456.733032 
z"/>
<path fill="#555B66" opacity="1.000000" stroke="none" 
	d="
M534.073608,426.570526 
	C527.157959,424.674744 520.142578,422.452606 513.001221,419.895935 
	C520.729553,419.195801 527.568298,422.036194 534.073608,426.570526 
z"/>
<path fill="#172130" opacity="1.000000" stroke="none" 
	d="
M520.136414,535.017334 
	C520.321167,535.564575 520.169983,536.008484 520.053223,536.802246 
	C519.794250,537.389038 519.500854,537.626038 518.694763,537.946899 
	C517.742432,538.547302 517.302795,539.063782 516.863159,539.580261 
	C516.863159,539.580261 516.591431,539.953918 516.373169,540.029480 
	C513.366760,541.098877 510.578552,542.092651 507.421814,543.151245 
	C507.037231,542.414490 507.021210,541.612915 507.376892,540.404175 
	C509.830780,538.994995 511.912964,537.992981 513.995117,536.990967 
	C515.930237,536.298645 517.865417,535.606384 520.136414,535.017334 
z"/>
<path fill="#555B66" opacity="1.000000" stroke="none" 
	d="
M539.947388,545.415649 
	C543.740601,543.423035 547.667603,541.731934 551.965576,540.128174 
	C548.734375,543.125244 545.799561,547.521423 539.947388,545.415649 
z"/>
<path fill="#555B66" opacity="1.000000" stroke="none" 
	d="
M540.804443,432.752625 
	C538.856384,431.406647 536.906067,429.725037 534.921387,427.722168 
	C536.858765,429.072937 538.830505,430.744965 540.804443,432.752625 
z"/>
<path fill="#555B66" opacity="1.000000" stroke="none" 
	d="
M537.159424,543.216614 
	C537.788696,543.311646 538.417053,543.712402 539.064087,544.415771 
	C538.441345,544.319641 537.799927,543.921021 537.159424,543.216614 
z"/>
<path fill="#555B66" opacity="1.000000" stroke="none" 
	d="
M553.234741,539.742188 
	C553.433350,539.175903 553.939575,538.593994 554.764954,538.039185 
	C554.570190,538.619629 554.056213,539.173157 553.234741,539.742188 
z"/>
<path fill="#555B66" opacity="1.000000" stroke="none" 
	d="
M517.108276,539.675293 
	C517.302795,539.063782 517.742432,538.547302 518.547424,538.060852 
	C518.393005,538.650757 517.873169,539.210571 517.108276,539.675293 
z"/>
<path fill="#172130" opacity="1.000000" stroke="none" 
	d="
M726.060303,431.482910 
	C726.504395,429.754761 726.893738,428.418823 727.283081,427.082916 
	C725.729370,426.815979 724.172546,426.316467 722.622620,426.336914 
	C720.325134,426.367249 718.018066,427.055084 715.741333,426.940613 
	C712.322388,426.768677 710.977295,428.856842 710.156128,431.496918 
	C709.298523,434.254272 708.804810,437.122498 708.069641,439.920593 
	C704.488892,453.548340 700.728210,467.131042 697.334106,480.804840 
	C694.969177,490.332489 693.182922,500.002441 690.953674,509.565765 
	C690.118042,513.150208 688.760254,516.612976 687.640564,520.131226 
	C687.238037,520.038208 686.835571,519.945251 686.433105,519.852234 
	C687.207764,515.693115 687.786316,511.485931 688.792908,507.383759 
	C692.156738,493.675201 695.601318,479.985413 699.153198,466.324371 
	C702.436707,453.695587 705.964600,441.130280 709.238220,428.498993 
	C710.151184,424.976135 712.026672,423.700684 715.638428,423.923706 
	C720.233032,424.207489 724.858521,423.992401 731.070068,423.992401 
	C726.022766,440.176666 721.295410,455.334991 716.568054,470.493286 
	C716.226990,470.514465 715.885864,470.535614 715.544739,470.556763 
	C715.390869,469.479156 714.840088,468.270874 715.145142,467.344360 
	C717.897461,458.984497 720.905151,450.708038 723.606934,442.332550 
	C724.700745,438.941711 725.223083,435.366486 726.060303,431.482910 
z"/>
<path fill="#192232" opacity="1.000000" stroke="none" 
	d="
M591.044922,506.983063 
	C592.360779,510.392822 593.870972,513.742249 594.951721,517.224976 
	C597.141052,524.280823 598.827209,531.507202 601.344849,538.436523 
	C601.957947,540.123840 604.851440,541.442444 606.945068,542.004639 
	C609.103088,542.584045 611.569580,542.111633 613.892090,541.960938 
	C618.218262,541.680176 621.310913,540.134827 622.179565,535.212463 
	C623.546692,527.465515 625.148499,519.742004 627.085632,512.118958 
	C628.957214,504.753632 631.607056,497.586456 633.492615,490.224091 
	C635.274109,483.268188 636.402405,476.147766 638.011658,469.144226 
	C639.372070,463.224121 641.009705,457.367706 642.524658,451.483124 
	C643.060852,451.617828 643.597046,451.752533 644.133301,451.887268 
	C643.227051,456.325531 642.457092,460.796875 641.390625,465.196289 
	C637.062073,483.051758 632.617249,500.878967 628.269714,518.729858 
	C626.663513,525.325012 625.227905,531.961609 623.662109,538.566833 
	C623.396423,539.687378 623.186340,541.164612 622.404175,541.763977 
	C616.920471,545.966309 610.509399,543.671692 604.552551,543.591248 
	C602.663818,543.565796 599.869690,540.476257 599.120117,538.241943 
	C595.753906,528.208435 592.974792,517.977966 590.243408,507.408630 
	C590.683594,506.993530 590.864258,506.988312 591.044922,506.983063 
z"/>
<path fill="#172130" opacity="1.000000" stroke="none" 
	d="
M591.034119,506.582397 
	C590.864258,506.988312 590.683594,506.993530 590.231445,507.005615 
	C584.345093,489.246674 578.679260,471.496735 573.137878,453.707947 
	C570.593018,445.538269 568.488464,437.227448 565.794617,429.109894 
	C564.532776,425.307495 565.979980,424.125214 569.281799,424.040588 
	C574.268677,423.912750 579.260498,423.978851 584.730103,423.892639 
	C585.210022,423.822754 585.028748,423.985626 585.114014,423.897217 
	C585.146973,424.595245 585.094788,425.381683 585.018799,426.587494 
	C584.994995,427.006897 584.938354,427.058228 584.938354,427.058228 
	C579.489014,427.058228 574.039612,427.058228 567.317200,427.058228 
	C569.620605,433.794006 571.785522,439.570160 573.563538,445.463013 
	C575.838135,453.001678 577.733032,460.653992 579.916687,468.221222 
	C582.212097,476.175476 584.682922,484.078949 587.023621,492.020355 
	C588.410339,496.725037 589.693542,501.460236 591.034119,506.582397 
z"/>
<path fill="#172130" opacity="1.000000" stroke="none" 
	d="
M585.024597,426.982727 
	C586.337219,430.442841 587.907532,433.851166 588.852417,437.424866 
	C592.522644,451.307068 596.023682,465.234406 599.500549,479.166748 
	C599.913574,480.822052 599.790771,482.611145 599.095703,484.476074 
	C597.733704,480.849884 596.113525,477.296661 595.064392,473.582092 
	C592.994812,466.254761 591.153442,458.859039 589.392334,451.450104 
	C588.406677,447.303253 587.765686,443.074188 586.979309,438.880310 
	C586.295105,435.230927 585.624695,431.578949 584.943298,427.493164 
	C584.938354,427.058228 584.994995,427.006897 585.024597,426.982727 
z"/>
<path fill="#172130" opacity="1.000000" stroke="none" 
	d="
M666.974609,521.434204 
	C667.150635,521.005798 667.329773,521.001770 667.778076,520.991150 
	C669.370850,526.027832 670.701233,531.069458 672.006653,536.117432 
	C672.129517,536.592529 671.945923,537.185608 672.157043,537.593323 
	C675.894165,544.812195 682.632141,541.335083 688.153015,541.873718 
	C691.628906,542.212769 693.363647,539.836487 694.017761,536.414368 
	C694.484253,533.973328 695.584290,531.653442 696.712891,528.375732 
	C698.731140,536.038940 693.861816,543.483276 687.513245,543.930298 
	C685.360901,544.081848 683.189514,543.965332 681.026794,543.965454 
	C671.609619,543.965942 671.554993,543.977478 669.512634,534.920593 
	C668.537415,530.596008 667.814819,526.214417 666.974609,521.434204 
z"/>
<path fill="#172130" opacity="1.000000" stroke="none" 
	d="
M705.959167,497.821533 
	C707.720032,491.390320 709.463623,485.369720 711.450562,478.508820 
	C713.248108,482.831909 706.311768,507.381500 698.997498,525.142761 
	C698.558716,525.003723 698.119934,524.864624 697.681152,524.725586 
	C699.041077,520.434448 700.417053,516.148254 701.756592,511.850708 
	C703.169800,507.316833 704.548279,502.772125 705.959167,497.821533 
z"/>
<path fill="#172130" opacity="1.000000" stroke="none" 
	d="
M603.957764,505.249146 
	C602.438171,498.850159 600.937134,492.879974 599.436035,486.909821 
	C599.851807,486.823090 600.267517,486.736389 600.683228,486.649658 
	C603.786560,492.145020 608.308960,513.574707 606.883606,518.248047 
	C605.796387,513.547424 604.886353,509.612701 603.957764,505.249146 
z"/>
<path fill="#172130" opacity="1.000000" stroke="none" 
	d="
M713.033264,476.372894 
	C713.167114,475.181580 713.343445,474.320190 713.519836,473.458771 
	C713.940735,473.524902 714.361572,473.591064 714.782410,473.657196 
	C714.443542,474.835358 714.105408,476.013763 713.749329,477.186676 
	C713.746826,477.195007 713.469482,477.163361 713.368042,477.087097 
	C713.244324,476.993988 713.170959,476.833893 713.033264,476.372894 
z"/>
<path fill="#F7F8F8" opacity="1.000000" stroke="none" 
	d="
M478.098083,524.963013 
	C476.921326,522.434509 475.263733,520.017578 474.646973,517.359131 
	C471.037415,501.800446 478.610138,491.112885 494.457489,489.321869 
	C498.410919,488.875061 502.433197,489.037720 507.092987,488.878387 
	C508.427795,488.798706 509.093475,488.760864 509.759125,488.723083 
	C514.087463,489.530090 518.394897,490.485901 522.750732,491.096375 
	C526.167542,491.575256 527.727783,493.154724 527.358887,496.663574 
	C526.947327,500.579529 526.685852,504.511292 526.316040,509.008026 
	C526.115662,510.562286 525.958252,511.544678 525.800781,512.527100 
	C522.832947,516.018311 519.865051,519.509460 516.849609,523.407654 
	C516.802124,523.814636 516.636047,523.723694 516.636047,523.723694 
	C515.766724,524.154663 514.897400,524.585571 513.677856,525.294189 
	C512.699829,526.045532 512.072021,526.519165 511.444214,526.992798 
	C507.438721,528.013672 503.433197,529.034546 498.849609,530.163696 
	C497.880157,530.405945 497.488708,530.539917 497.097260,530.673828 
	C491.037048,530.149170 484.798248,530.284363 479.364441,525.691772 
	C478.678558,525.254944 478.388306,525.109009 478.098083,524.963013 
z"/>
<path fill="#172130" opacity="1.000000" stroke="none" 
	d="
M455.957092,528.656006 
	C450.832550,525.502319 451.615601,519.745483 451.141296,514.786438 
	C449.712219,499.846436 455.669495,488.275787 468.680420,480.077332 
	C467.421722,482.077606 465.860107,484.228546 463.849548,486.834473 
	C462.261749,488.855042 461.122894,490.420654 459.984070,491.986267 
	C454.856018,495.802216 454.400543,501.460236 454.007324,508.029175 
	C454.011383,511.940094 454.016937,514.965149 454.022461,517.990234 
	C454.674713,521.409729 455.326965,524.829224 455.957092,528.656006 
z"/>
<path fill="#172130" opacity="1.000000" stroke="none" 
	d="
M481.092041,476.130585 
	C492.283875,472.909515 503.791809,474.427063 515.691101,475.758331 
	C512.543884,476.274963 509.008881,476.865021 505.461334,476.954071 
	C498.732056,477.122986 491.995392,477.033813 485.262329,476.980774 
	C483.967407,476.970581 482.675049,476.634308 481.092041,476.130585 
z"/>
<path fill="#2A3243" opacity="1.000000" stroke="none" 
	d="
M490.996338,535.004883 
	C490.328308,536.657043 489.996368,538.595459 488.900055,539.882935 
	C487.746094,541.238098 485.927399,542.563965 484.270752,542.748230 
	C483.313080,542.854675 481.852051,540.825256 481.085632,539.488770 
	C480.494873,538.458557 480.633240,537.010254 480.494446,536.067383 
	C483.834229,535.706726 487.007812,535.364014 490.590698,535.010620 
	C491.000000,535.000000 490.996338,535.004883 490.996338,535.004883 
z"/>
<path fill="#172130" opacity="1.000000" stroke="none" 
	d="
M474.990723,544.744080 
	C469.991241,542.409973 464.924194,539.716370 459.551025,536.888062 
	C458.106842,534.439026 456.968719,532.124695 455.879272,529.434570 
	C457.085876,530.265808 458.243805,531.472778 459.836609,533.114441 
	C461.183411,534.364502 462.095367,535.179810 463.007324,535.995117 
	C465.983398,538.030701 468.968903,540.052734 471.930328,542.109375 
	C472.958649,542.823547 473.927277,543.623657 474.990723,544.744080 
z"/>
<path fill="#2A3243" opacity="1.000000" stroke="none" 
	d="
M513.961548,536.647827 
	C511.912964,537.992981 509.830780,538.994995 507.381226,540.005615 
	C505.638794,539.355591 504.263733,538.696899 502.679230,537.937805 
	C504.455719,536.214661 505.717621,534.990601 507.181885,533.119629 
	C508.589233,531.985107 509.794189,531.497498 510.999176,531.009949 
	C511.975433,532.774841 512.951660,534.539734 513.961548,536.647827 
z"/>
<path fill="#2A3243" opacity="1.000000" stroke="none" 
	d="
M522.002625,479.995544 
	C522.094360,481.783813 522.186157,483.572052 521.764221,485.681458 
	C520.501160,486.000122 519.751831,485.997620 519.002441,485.995117 
	C516.820129,484.828186 514.637878,483.661285 511.871765,482.182190 
	C513.852600,481.045746 515.556824,480.068024 517.856201,479.317383 
	C519.635132,479.694824 520.818909,479.845184 522.002625,479.995544 
z"/>
<path fill="#2A3243" opacity="1.000000" stroke="none" 
	d="
M537.670776,450.293030 
	C536.353943,449.275360 534.823303,448.560577 534.541016,447.510254 
	C534.251709,446.433960 535.184326,445.029205 535.582214,443.768219 
	C536.750427,444.252594 538.597839,444.453247 538.943665,445.281158 
	C539.636841,446.940582 542.093933,449.477936 537.670776,450.293030 
z"/>
<path fill="#192232" opacity="1.000000" stroke="none" 
	d="
M525.866333,512.918457 
	C525.958252,511.544678 526.115662,510.562286 526.471741,509.347046 
	C527.565918,508.844910 528.461426,508.575623 530.078308,508.089386 
	C528.611267,512.245483 530.298828,517.033203 524.364929,518.990723 
	C524.972473,516.787903 525.452148,515.048889 525.866333,512.918457 
z"/>
<path fill="#2A3243" opacity="1.000000" stroke="none" 
	d="
M460.169250,492.252411 
	C461.122894,490.420654 462.261749,488.855042 463.697449,487.141571 
	C467.172302,489.636841 465.073181,491.965424 463.384766,494.723755 
	C462.328094,493.954803 461.341248,493.236694 460.169250,492.252411 
z"/>
<path fill="#192232" opacity="1.000000" stroke="none" 
	d="
M470.004028,515.277710 
	C469.998108,511.814606 469.998108,508.757874 469.998108,505.701172 
	C470.574738,505.657623 471.151367,505.614075 471.727997,505.570526 
	C471.869415,509.188019 472.010834,512.805542 472.152222,516.423035 
	C471.438141,516.176697 470.724060,515.930359 470.004028,515.277710 
z"/>
<path fill="#192232" opacity="1.000000" stroke="none" 
	d="
M511.166290,530.757385 
	C509.794189,531.497498 508.589233,531.985107 507.193329,532.738770 
	C506.738525,532.283569 506.090240,531.058289 506.271210,530.920227 
	C507.783997,529.766235 509.449249,528.812134 511.256348,527.395264 
	C512.072021,526.519165 512.699829,526.045532 513.590454,525.584961 
	C514.421509,526.352661 514.989685,527.107361 515.559570,527.864197 
	C514.130859,528.756897 512.732117,529.630859 511.166290,530.757385 
z"/>
<path fill="#2A3243" opacity="1.000000" stroke="none" 
	d="
M454.404938,517.982910 
	C454.016937,514.965149 454.011383,511.940094 454.011932,508.462158 
	C456.786255,510.568634 457.217377,516.152832 454.404938,517.982910 
z"/>
<path fill="#172130" opacity="1.000000" stroke="none" 
	d="
M522.375366,479.995880 
	C520.818909,479.845184 519.635132,479.694824 518.209839,479.278259 
	C518.890625,478.470337 519.812927,477.928619 520.887939,477.145081 
	C522.397522,477.031097 523.754517,477.158905 525.510559,477.378723 
	C524.855774,478.312561 523.801880,479.154388 522.375366,479.995880 
z"/>
<path fill="#192232" opacity="1.000000" stroke="none" 
	d="
M518.678711,486.047363 
	C519.751831,485.997620 520.501160,486.000122 521.625244,486.003418 
	C522.883850,486.616730 523.767700,487.229218 524.651611,487.841705 
	C524.580994,488.285461 524.510376,488.729218 524.439758,489.173004 
	C522.303711,488.884888 520.167725,488.596771 518.031738,488.308685 
	C518.139465,487.572327 518.247253,486.835938 518.678711,486.047363 
z"/>
<path fill="#192232" opacity="1.000000" stroke="none" 
	d="
M485.996887,488.997559 
	C488.947937,487.472321 491.898987,485.947052 494.850006,484.421753 
	C495.112000,485.080322 495.374023,485.738892 495.636017,486.397461 
	C492.690582,487.262299 489.745178,488.127136 486.399902,488.995972 
	C486.000000,489.000000 485.996857,488.997559 485.996887,488.997559 
z"/>
<path fill="#192232" opacity="1.000000" stroke="none" 
	d="
M497.029114,531.066040 
	C497.488708,530.539917 497.880157,530.405945 498.573975,530.383667 
	C499.832764,537.090698 494.820190,534.428650 491.444031,535.001892 
	C490.996338,535.004883 491.000000,535.000000 490.996948,535.001221 
	C492.982941,533.821045 494.971985,532.639648 497.029114,531.066040 
z"/>
<path fill="#192232" opacity="1.000000" stroke="none" 
	d="
M529.029297,499.527893 
	C529.016418,497.295105 529.016418,495.465546 529.016418,493.635956 
	C529.640991,493.624664 530.265625,493.613342 530.890198,493.602051 
	C530.890198,495.861084 530.890198,498.120117 530.890198,500.379150 
	C530.274231,500.229767 529.658203,500.080414 529.029297,499.527893 
z"/>
<path fill="#172130" opacity="1.000000" stroke="none" 
	d="
M471.055176,479.355225 
	C473.117462,478.298157 475.225800,477.572174 477.724976,476.845398 
	C476.695404,480.057373 474.408844,481.132019 471.055176,479.355225 
z"/>
<path fill="#192232" opacity="1.000000" stroke="none" 
	d="
M509.884033,488.392395 
	C509.093475,488.760864 508.427795,488.798706 507.461792,488.678558 
	C506.575165,487.617218 505.988953,486.713806 504.816711,484.907379 
	C507.777954,485.316742 509.878906,485.607147 512.553101,485.976807 
	C511.343384,486.968201 510.676178,487.514984 509.884033,488.392395 
z"/>
<path fill="#192232" opacity="1.000000" stroke="none" 
	d="
M477.720703,524.992920 
	C478.388306,525.109009 478.678558,525.254944 479.001129,525.655884 
	C478.446533,526.879822 477.859589,527.848938 477.272675,528.817993 
	C476.587677,528.204407 475.902649,527.590820 475.217621,526.977234 
	C475.926178,526.325745 476.634766,525.674316 477.720703,524.992920 
z"/>
<path fill="#2A3243" opacity="1.000000" stroke="none" 
	d="
M463.324402,535.951050 
	C462.095367,535.179810 461.183411,534.364502 460.142517,533.267578 
	C461.258392,533.087341 462.535919,533.072693 463.715607,533.405151 
	C463.910461,533.460083 463.677002,535.034668 463.324402,535.951050 
z"/>
<path fill="#2A3243" opacity="1.000000" stroke="none" 
	d="
M532.447266,476.976685 
	C533.582275,476.790619 534.653870,476.948792 535.725464,477.106995 
	C535.624207,477.545746 535.522949,477.984497 535.421692,478.423248 
	C534.409058,478.055817 533.396423,477.688354 532.447266,476.976685 
z"/>
<path fill="#172130" opacity="1.000000" stroke="none" 
	d="
M505.017029,543.794067 
	C504.279083,544.419128 503.470184,544.692688 502.328979,544.978149 
	C501.930481,544.118286 501.864380,543.246399 501.798248,542.374512 
	C502.847534,542.730530 503.896820,543.086548 505.017029,543.794067 
z"/>
<path fill="#2A3243" opacity="1.000000" stroke="none" 
	d="
M545.236389,524.902161 
	C545.795288,524.334534 546.438599,524.076172 547.081909,523.817749 
	C547.175537,524.365662 547.269165,524.913513 547.362732,525.461426 
	C546.682068,525.378113 546.001465,525.294739 545.236389,524.902161 
z"/>
<path fill="#2A3243" opacity="1.000000" stroke="none" 
	d="
M467.549866,438.435364 
	C467.584351,437.606354 467.848358,437.009613 468.112427,436.412872 
	C468.601837,436.907593 469.091217,437.402313 469.580597,437.897064 
	C468.980194,438.153900 468.379791,438.410736 467.549866,438.435364 
z"/>
<path fill="#2A3243" opacity="1.000000" stroke="none" 
	d="
M533.504883,433.330902 
	C532.963074,432.987549 532.638306,432.430389 532.313538,431.873230 
	C532.591187,431.746674 532.868896,431.620087 533.146545,431.493530 
	C533.338318,432.034698 533.530090,432.575928 533.504883,433.330902 
z"/>
<path fill="#2A3243" opacity="1.000000" stroke="none" 
	d="
M476.806335,435.204742 
	C477.050415,435.764374 476.996857,436.262726 476.943298,436.761047 
	C476.496277,436.647736 476.049255,436.534424 475.602295,436.421082 
	C475.904419,435.995209 476.206543,435.569336 476.806335,435.204742 
z"/>
<path fill="#2A3243" opacity="1.000000" stroke="none" 
	d="
M470.476410,528.303955 
	C470.470612,527.551575 470.675201,527.017700 470.879791,526.483826 
	C471.153290,526.618225 471.426788,526.752563 471.700256,526.886963 
	C471.362457,527.432068 471.024628,527.977234 470.476410,528.303955 
z"/>
<path fill="#172130" opacity="1.000000" stroke="none" 
	d="
M498.952087,545.655334 
	C498.210327,546.014771 497.434753,546.066895 496.266541,546.124329 
	C496.888702,545.869080 497.903503,545.608582 498.952087,545.655334 
z"/>
<path fill="#2A3243" opacity="1.000000" stroke="none" 
	d="
M479.463257,427.612030 
	C479.347839,428.058716 479.066376,428.332581 478.766968,428.585266 
	C478.759216,428.591797 478.555481,428.366028 478.443176,428.248627 
	C478.727081,427.977905 479.010925,427.707184 479.463257,427.612030 
z"/>
<path fill="#2A3243" opacity="1.000000" stroke="none" 
	d="
M522.388916,431.463318 
	C521.941711,431.347839 521.667603,431.066162 521.414673,430.766602 
	C521.408203,430.758972 521.634155,430.555115 521.751709,430.442749 
	C522.022705,430.726776 522.293762,431.010803 522.388916,431.463318 
z"/>
<path fill="#192232" opacity="1.000000" stroke="none" 
	d="
M516.762390,523.728699 
	C517.383850,524.008362 518.044983,524.373962 518.706177,524.739563 
	C518.543701,524.979797 518.381287,525.220032 518.218811,525.460266 
	C517.777100,525.081177 517.335449,524.702026 516.764893,524.023315 
	C516.636047,523.723694 516.802124,523.814636 516.762390,523.728699 
z"/>
<path fill="#192232" opacity="1.000000" stroke="none" 
	d="
M479.388062,491.952271 
	C479.787048,491.709412 480.182709,491.714355 480.578369,491.719299 
	C480.575867,491.883026 480.581055,492.189209 480.569763,492.189850 
	C480.175720,492.211090 479.780151,492.203552 479.388062,491.952271 
z"/>
<path fill="#2A3243" opacity="1.000000" stroke="none" 
	d="
M519.388672,531.463013 
	C518.941772,531.347595 518.667908,531.066040 518.415100,530.766663 
	C518.408630,530.759033 518.634460,530.555237 518.751892,530.442871 
	C519.022705,530.726746 519.293579,531.010620 519.388672,531.463013 
z"/>
<path fill="#2A3243" opacity="1.000000" stroke="none" 
	d="
M464.954681,432.602936 
	C464.714294,432.208954 464.716095,431.816956 464.746338,431.427155 
	C464.747223,431.416107 465.051056,431.428528 465.213684,431.429993 
	C465.209381,431.821747 465.205109,432.213470 464.954681,432.602936 
z"/>
<path fill="#192232" opacity="1.000000" stroke="none" 
	d="
M486.000916,489.001221 
	C485.650024,489.247589 485.298157,489.492706 484.946289,489.737823 
	C484.860138,489.613647 484.773956,489.489502 484.687805,489.365326 
	C484.963928,489.249542 485.240051,489.133789 485.756531,489.007812 
	C485.996857,488.997559 486.000000,489.000000 486.000916,489.001221 
z"/>
<path fill="#192232" opacity="1.000000" stroke="none" 
	d="
M520.531982,523.550293 
	C520.473083,523.585815 520.590820,523.514771 520.531982,523.550293 
z"/>
<path fill="#172130" opacity="1.000000" stroke="none" 
	d="
M525.098022,530.148743 
	C524.965393,530.009277 524.828308,529.818298 524.691284,529.627258 
	C524.794617,529.684753 524.897949,529.742249 525.098999,529.951111 
	C525.196777,530.102478 525.093506,530.097229 525.098022,530.148743 
z"/>
<path fill="#192232" opacity="1.000000" stroke="none" 
	d="
M481.463684,529.452881 
	C481.521759,529.418640 481.405579,529.487122 481.463684,529.452881 
z"/>
<path fill="#2A3243" opacity="1.000000" stroke="none" 
	d="
M463.450928,440.531189 
	C463.418610,440.476471 463.483246,440.585876 463.450928,440.531189 
z"/>
<path fill="#252E40" opacity="1.000000" stroke="none" 
	d="
M800.997375,542.992859 
	C790.395508,543.321106 779.766479,544.236328 769.202454,543.747070 
	C763.311096,543.474304 757.423889,541.169983 751.726746,539.220215 
	C746.571655,537.455872 744.818420,531.296509 746.970825,527.438538 
	C755.609192,529.360718 764.247864,530.296509 772.113220,533.274536 
	C782.739441,537.297974 792.105225,533.017212 801.762573,530.652588 
	C804.192871,530.057617 805.923828,526.606873 807.955322,524.061523 
	C808.018433,523.423157 808.158875,523.233643 808.906067,523.003967 
	C812.864136,520.844666 814.512817,518.003540 815.136475,513.856018 
	C816.386353,505.544678 805.975159,495.681488 798.347595,493.051025 
	C794.980774,491.889923 791.565430,490.870300 788.178528,489.766479 
	C782.317322,487.856232 776.563171,485.490509 770.581360,484.104523 
	C758.777161,481.369476 749.124268,471.166260 748.024414,459.222443 
	C747.713196,455.842316 747.988708,452.408173 747.998901,448.593292 
	C749.565369,444.459808 750.301880,440.000244 752.839172,437.135376 
	C761.961670,426.834839 773.999451,421.672424 787.584473,422.244873 
	C796.787354,422.632629 805.932434,425.142395 815.029297,427.055206 
	C821.963684,428.513275 823.679871,432.501038 820.860962,439.765533 
	C817.318787,438.192566 813.920593,435.854065 810.229797,435.220734 
	C802.999390,433.979858 795.610413,433.636414 788.278625,433.022034 
	C781.940857,432.490936 776.254944,434.738953 771.127197,438.054321 
	C765.326111,441.805054 761.023743,447.220093 762.210632,454.412872 
	C763.308350,461.065063 766.450073,467.099335 774.063049,468.942841 
	C774.063049,468.942841 773.996887,468.994446 774.062805,469.321655 
	C777.726074,471.423706 781.192139,473.569092 784.946899,474.899902 
	C794.115601,478.149567 803.786255,480.211914 812.590149,484.214478 
	C831.242065,492.694427 835.252441,514.217285 822.751160,529.951721 
	C817.108337,537.053955 809.476929,540.695801 800.997375,542.992859 
z"/>
<path fill="#172130" opacity="1.000000" stroke="none" 
	d="
M774.070190,468.594238 
	C766.450073,467.099335 763.308350,461.065063 762.210632,454.412872 
	C761.023743,447.220093 765.326111,441.805054 771.127197,438.054321 
	C776.254944,434.738953 781.940857,432.490936 788.278625,433.022034 
	C795.610413,433.636414 802.999390,433.979858 810.229797,435.220734 
	C813.920593,435.854065 817.318787,438.192566 820.860962,439.765533 
	C823.679871,432.501038 821.963684,428.513275 815.029297,427.055206 
	C805.932434,425.142395 796.787354,422.632629 787.584473,422.244873 
	C773.999451,421.672424 761.961670,426.834839 752.839172,437.135376 
	C750.301880,440.000244 749.565369,444.459808 747.623108,448.590576 
	C746.740051,448.975037 746.236511,448.956726 745.733032,448.938416 
	C746.674194,436.053986 755.400391,428.791168 765.849731,424.436554 
	C783.339966,417.147705 801.274109,418.899017 818.684998,425.720886 
	C824.611145,428.042847 827.329285,435.248993 824.810242,440.962097 
	C824.453491,441.771057 822.364075,442.496643 821.370422,442.216949 
	C818.348083,441.366302 815.519714,439.851685 812.526245,438.868561 
	C801.218018,435.154694 789.658081,434.658234 778.123535,437.299561 
	C771.594360,438.794678 766.640991,442.868591 765.177002,449.755737 
	C763.615356,457.102234 766.696594,462.706024 772.790771,466.820709 
	C773.305664,467.168335 773.652466,467.764801 774.070190,468.594238 
z"/>
<path fill="#172130" opacity="1.000000" stroke="none" 
	d="
M801.025513,543.347290 
	C809.476929,540.695801 817.108337,537.053955 822.751160,529.951721 
	C835.252441,514.217285 831.242065,492.694427 812.590149,484.214478 
	C803.786255,480.211914 794.115601,478.149567 784.946899,474.899902 
	C781.192139,473.569092 777.726074,471.423706 774.091309,469.290314 
	C778.903381,470.381561 783.777039,471.756104 788.596741,473.298981 
	C795.694519,475.571075 802.788574,477.864075 809.822083,480.325562 
	C822.485229,484.757202 830.764038,493.138184 831.933655,506.937286 
	C833.112061,520.840027 827.837036,532.094116 815.818542,539.399536 
	C811.726013,541.887207 806.623047,542.712646 801.567139,544.351807 
	C801.119568,544.171326 801.086609,543.936584 801.025513,543.347290 
z"/>
<path fill="#192232" opacity="1.000000" stroke="none" 
	d="
M745.485352,449.264709 
	C746.236511,448.956726 746.740051,448.975037 747.619324,448.996063 
	C747.988708,452.408173 747.713196,455.842316 748.024414,459.222443 
	C749.124268,471.166260 758.777161,481.369476 770.581360,484.104523 
	C776.563171,485.490509 782.317322,487.856232 788.178528,489.766479 
	C791.565430,490.870300 794.980774,491.889923 798.347595,493.051025 
	C805.975159,495.681488 816.386353,505.544678 815.136475,513.856018 
	C814.512817,518.003540 812.864136,520.844666 809.068665,522.924194 
	C809.771362,519.995361 811.413269,517.143127 811.845642,514.117920 
	C813.011230,505.964050 808.255981,500.575623 801.598083,497.620239 
	C793.617798,494.077820 785.084045,491.763763 776.747864,489.046936 
	C767.421631,486.007446 758.272095,482.867462 751.738159,474.789795 
	C745.675781,467.295013 744.007568,458.865967 745.485352,449.264709 
z"/>
</svg>