<svg xmlns="http://www.w3.org/2000/svg" viewBox="0 0 139.02 177.13"><title>Philips logo</title><path d="M563.62,562.15c-4.91.6-12.3,1.51-14.11,2a6,6,0,0,0-4.38,4.38c-.53,1.81-1.43,9.21-2,14.11A60,60,0,0,0,563.62,562.15ZM512,591.36a60.13,60.13,0,0,0,29.13-7.47c-.53-4.75-1.66-13.28-2.19-15.25a6,6,0,0,0-4.38-4.38c-2.72-.75-18.49-2.57-18.49-2.57v-1.06s15.77-1.81,18.49-2.57a6,6,0,0,0,4.38-4.38c.75-2.57,2.42-17.06,2.57-18.57-10.79,2-18.19,7-27.47,11.7-9.89,5.06-19.47,8.68-32.07,8.68a54.23,54.23,0,0,1-28-8A60.35,60.35,0,0,0,512,591.36ZM452.68,461.47h6.49v-5.06h2.26c6,0,9.81-3.09,9.81-8.53,0-6-4.08-8.08-10.72-8.08a63.75,63.75,0,0,0-7.85.45Zm21.13,0h6.49v-8.3H487v8.3h6.49V440.34H487v8.38H480.3v-8.38h-6.49Zm24.45,0h6.49V440.34h-6.49Zm11.25,0h11.7l1-4.23H516V440.34h-6.49Zm14.94,0h6.49V440.34h-6.49Zm11.32,0h6.49v-5.06h2.26c6,0,9.81-3.09,9.81-8.53,0-6-4.08-8.08-10.72-8.08a63.75,63.75,0,0,0-7.85.45ZM512,470.83a59.71,59.71,0,0,0-14.79,1.81c.23,2.11,1,8,1.36,9.21a3.37,3.37,0,0,0,2.42,2.42c1.51.45,10,1.36,10,1.36v.6s-8.45,1-10,1.43a3.37,3.37,0,0,0-2.42,2.42c-.3,1.21-1,6.57-1.28,8.91,5.06.68,10.41,1.28,10.41,1.28v1.06s-15.77,1.81-18.49,2.57a6,6,0,0,0-4.38,4.38c-.75,2.49-2.26,16.15-2.49,18.26,11.09-2,20.6-7.77,27.7-11.25,10.11-4.91,19.4-8.91,32.07-8.91A53.65,53.65,0,0,1,570,514.3,60.38,60.38,0,0,0,512,470.83Zm54.34-15.25c0,1.36-1,2-3.4,2a18.84,18.84,0,0,1-7.32-1.66l.68,4.91a22.32,22.32,0,0,0,6.72,1.06c5.43,0,9.81-1.74,9.81-7.09,0-7.09-10.19-5.74-10.19-9.13,0-1.13,1.13-1.66,3-1.66a16.53,16.53,0,0,1,5.74,1.06l-.53-4.6a24.1,24.1,0,0,0-6-.6c-5.21,0-8.75,2-8.75,6.34C556.3,453.62,566.34,452.12,566.34,455.59Zm-23.77,79.32c.15,1.21,1.81,16.15,2.57,18.79a6,6,0,0,0,4.38,4.38c2,.53,10.49,1.58,15.25,2.19a58.72,58.72,0,0,0,7-21.89,58.41,58.41,0,0,0-20.53-4.08A44.79,44.79,0,0,0,542.57,534.91ZM474.19,497.7a6,6,0,0,0,4.38-4.38c.53-1.74,1.43-8.83,2-13.74a60.78,60.78,0,0,0-20.08,20.08C465.36,499.13,472.45,498.23,474.19,497.7Zm-22,25.81a57.72,57.72,0,0,0,20.45,3.92,50.47,50.47,0,0,0,8.45-.68c-.23-2.19-1.81-15.92-2.49-18.41a6,6,0,0,0-4.38-4.38c-1.89-.53-10.11-1.58-14.94-2.11A57.72,57.72,0,0,0,452.23,523.51Zm42.87-33.43a3.37,3.37,0,0,0-2.42-2.42c-1.21-.3-6.72-1.06-9-1.28.45,3.17.83,6,1.13,7a6,6,0,0,0,4.38,4.38,65.66,65.66,0,0,0,7.17,1.13C496.08,496.49,495.4,491.28,495.09,490.08Zm0-8.23a89.79,89.79,0,0,0,1.28-9.06,59,59,0,0,0-13.74,5.58c.23,2,.53,4.6.91,7.17,2.19-.23,7.92-.91,9.13-1.28A3.24,3.24,0,0,0,495.09,481.85Zm-42.94,56.68c7.62,4.83,18.26,7.25,27.09,7.25,13.43,0,21.58-4,30.49-8.45,12.23-6.11,22.34-12.53,38.26-12.45a53.31,53.31,0,0,1,24.23,5.81,48.38,48.38,0,0,0-.53-7.47c-7.62-4.83-18.19-7.32-27-7.32-13.43,0-21.58,4.15-30.41,8.53-11.4,5.66-22.34,12.45-38.19,12.45-9.66,0-24.38-5.89-24.38-5.89A61.44,61.44,0,0,0,452.15,538.53ZM581.51,427.21V531a69.51,69.51,0,1,1-139,0V427.21A650.72,650.72,0,0,1,512,423.44C542.72,423.36,572.15,425.93,581.51,427.21ZM528.38,572.94c-.3-1.21-1.13-7.77-1.13-7.77h-.38s-.75,6.64-1.13,7.77a2.51,2.51,0,0,1-1.89,1.89c-1.21.3-7.77,1.13-7.77,1.13v.45s6.64.75,7.77,1.13a2.51,2.51,0,0,1,1.89,1.89c.3,1.21,1.13,7.77,1.13,7.77h.45s.75-6.64,1.13-7.77a2.51,2.51,0,0,1,1.89-1.89c1.21-.3,7.77-1.13,7.77-1.13V576s-6.64-.75-7.77-1.13A2.72,2.72,0,0,1,528.38,572.94ZM548.3,448c0-2.64-1.51-4.15-4.68-4.15h-1.06v8.75h1.06C546.94,452.57,548.3,450.76,548.3,448Zm-87.77,4.6h-1.06v-8.75h1.06c3.17,0,4.68,1.51,4.68,4.15C465.21,450.76,463.93,452.57,460.53,452.57Z" transform="translate(-442.49 -423.43)" style="fill:#004eaa"/></svg>